0.16m3min_grf.mot
version=1
nRows=10
nColumns 19
inDegrees=yes
endheader
time	1_ground_force_vx	1_ground_force_vy	1_ground_force_vz	1_ground_force_px	1_ground_force_py	1_ground_force_pz	1_ground_torque_x	1_ground_torque_y	1_ground_torque_z	2_ground_force_vx	2_ground_force_vy	2_ground_force_vz	2_ground_force_px	2_ground_force_py	2_ground_force_pz	2_ground_torque_x	2_ground_torque_y	2_ground_torque_z
            3.657500	           -0.182597	           -4.867012	           -0.066271	           -0.233013	            0.005581	           -0.255695	           -0.633628	           -0.138054	           -0.194646	            0.150437	           -2.761048	           -0.197628	           -0.232311	            0.006130	           -0.833667	           -0.357595	            0.178514	           -0.055758
            3.658000	           -0.274154	           -4.326626	            0.027987	           -0.233013	            0.005581	           -0.255695	           -0.544137	           -0.599923	           -0.275969	           -0.506935	           -2.393948	           -0.524532	           -0.232311	            0.006130	           -0.833667	           -0.414880	            0.433601	           -0.073674
            3.658500	           -0.044613	           -4.867772	            0.116812	           -0.233013	            0.005581	           -0.255695	           -0.622749	           -0.683021	           -0.266337	           -0.558355	           -1.105748	           -0.332200	           -0.232311	            0.006130	           -0.833667	           -0.433111	            0.282223	           -0.055355
            3.659000	           -0.365286	           -4.868227	            0.209320	           -0.233013	            0.005581	           -0.255695	           -0.551648	           -0.193331	           -0.259299	           -0.132471	           -2.211124	            0.226816	           -0.232311	            0.006130	           -0.833667	           -0.412833	           -0.133561	           -0.075697
            3.659500	           -0.319327	           -6.129881	            0.157939	           -0.233013	            0.005581	           -0.255695	           -0.567947	            0.417072	           -0.329835	            0.287492	           -1.659667	            0.932529	           -0.232311	            0.006130	           -0.833667	           -0.204692	           -0.557917	           -0.152704
            3.660000	           -0.135631	           -5.409570	            0.344000	           -0.233013	            0.005581	           -0.255695	           -0.688508	            0.619849	           -0.170488	            0.802800	           -1.657472	            0.838454	           -0.232311	            0.006130	           -0.833667	           -0.354627	           -0.643871	           -0.058692
            3.660500	           -0.090813	           -5.407791	           -0.068817	           -0.233013	            0.005581	           -0.255695	           -0.539833	            0.389444	           -0.320275	            0.522824	           -2.025110	            0.367978	           -0.232311	            0.006130	           -0.833667	           -0.450072	           -0.218973	           -0.019434
            3.661000	           -0.182696	           -4.326215	           -0.063952	           -0.233013	            0.005581	           -0.255695	           -0.615421	           -0.220838	           -0.289056	           -0.084457	           -2.577913	           -0.149943	           -0.232311	            0.006130	           -0.833667	           -0.320178	            0.225779	           -0.017905
            3.661500	           -0.136706	           -4.506668	           -0.018983	           -0.233013	            0.005581	           -0.255695	           -0.636047	           -0.627368	           -0.326382	           -0.460626	           -2.210635	           -0.242326	           -0.232311	            0.006130	           -0.833667	           -0.358558	            0.443257	           -0.073664
            3.662000	           -0.365709	           -5.047706	            0.025123	           -0.233013	            0.005581	           -0.255695	           -0.581136	           -0.590891	           -0.242126	           -0.227062	           -2.025473	           -0.288697	           -0.232311	            0.006130	           -0.833667	           -0.338785	            0.178380	            0.000785
